<?xml version="1.0" encoding="utf-8"?>
<!-- Generator: Adobe Illustrator 25.4.1, SVG Export Plug-In . SVG Version: 6.00 Build 0)  -->
<svg version="1.1" id="Layer_1" xmlns="http://www.w3.org/2000/svg" xmlns:xlink="http://www.w3.org/1999/xlink" x="0px" y="0px"
	 viewBox="0 0 500 500" style="enable-background:new 0 0 500 500;" xml:space="preserve">
<style type="text/css">
	.st0{fill:#000000;}
</style>
<g>
	<g transform="translate(100.005493, 220.689662)">
	</g>
</g>
<g>
	<path class="st0" d="M484.3,335.6C446.6,424.2,357.7,487.8,254,487.8c-106,0-196.6-64.6-232.8-155.8h49.9
		c34.8,77.9,114.3,132.4,206.9,132.4c91.4,0,170-53.1,205.5-129.5C483.8,335.1,484,335.4,484.3,335.6z"/>
	<path class="st0" d="M484.7,162.6c-0.3,0.2-0.6,0.4-0.9,0.6C448.5,86.4,369.6,32.9,278,32.9c-92.5,0-172,54.4-206.9,132.4H21.2
		C57.4,74.1,148,9.5,254,9.5C358.1,9.5,447.3,73.6,484.7,162.6z"/>
	<path class="st0" d="M467.4,332c-33,69.1-105.9,117.1-190.5,117.1c-83.8,0-156.2-48.5-189.6-117.1h1.4
		c31.5,58.1,95,97.9,168.1,97.9s136.6-39.7,168.1-97.9H467.4z"/>
	<path class="st0" d="M467.4,165.3h-42.5c-31.5-58.1-95-97.9-168.1-97.9s-136.6,39.7-168.1,97.9h-1.4
		C120.8,96.7,193.1,48.2,276.9,48.2C361.5,48.2,434.4,96.2,467.4,165.3z"/>
	<path class="st0" d="M472.7,176.5l-97.3,139c-7,10-13.5,14.9-20.6,14.9s-13.5-4.8-20.6-14.9L307.7,277l-27.1,38.6
		c-6.5,10-13.5,14.9-20.1,14.9c-7,0-14-4.8-20.6-14.9l-65.7-96h41.6l45.1,67.1l26.6-39.4l-48.2-70.7h42.6l73.7,110.1l74.7-110.1
		H472.7z M216.9,328H110.6c-27.6,0-50.2-7.2-68.2-22.1c-18.1-14.5-27.1-32.9-27.1-55c0-22.5,9-40.2,26.6-53.8
		c18.1-13.7,40.6-20.5,68.7-20.5h34.6h42.1l17.6,26.5h-41.6h-52.7c-18.1,0-33.1,4.8-44.6,14.1c-12,9.2-17.6,21.3-17.6,35.8
		s5.5,26.1,17.6,35.4c11.5,8.8,26.6,13.3,44.6,13.3h87.8L216.9,328z"/>
	<path class="st0" d="M484.3,338.3C446.6,426.9,357.7,490.5,254,490.5c-106,0-196.6-64.6-232.8-155.8h49.9
		c34.8,77.9,114.3,132.4,206.9,132.4c91.4,0,170-53.1,205.5-129.5C483.8,337.8,484,338.1,484.3,338.3z"/>
	<path class="st0" d="M484.7,165.3c-0.3,0.2-0.6,0.4-0.9,0.6C448.5,89.1,369.6,35.6,278,35.6c-92.5,0-172,54.4-206.9,132.4H21.2
		C57.4,76.8,148,12.2,254,12.2C358.1,12.2,447.3,76.3,484.7,165.3z"/>
	<path class="st0" d="M467.4,334.7c-33,69.1-105.9,117.1-190.5,117.1c-83.8,0-156.2-48.5-189.6-117.1h1.4
		c31.5,58.1,95,97.9,168.1,97.9s136.6-39.7,168.1-97.9H467.4z"/>
	<path class="st0" d="M467.4,168h-42.5c-31.5-58.1-95-97.9-168.1-97.9S120.2,109.9,88.7,168h-1.4C120.8,99.4,193.1,50.9,276.9,50.9
		C361.5,50.9,434.4,98.9,467.4,168z"/>
</g>
</svg>
